<svg id="Layer_1" data-name="Layer 1" xmlns="http://www.w3.org/2000/svg" viewBox="0 0 135 33"><defs><style>.cls-1{fill:#fff;}</style></defs><title>logo</title><path class="cls-1" d="M66.39,6.93a7.39,7.39,0,0,0-7.68,7.6,7.68,7.68,0,0,0,15.36,0A7.39,7.39,0,0,0,66.39,6.93Zm0,11.79c-2.25,0-3.77-1.68-3.77-4.19s1.52-4.2,3.77-4.2,3.77,1.69,3.77,4.2S68.64,18.72,66.39,18.72Z"/><path class="cls-1" d="M52.43,14.61a.1.1,0,0,1,0-.19,3.93,3.93,0,0,0,2-1.35l4.83-5.91H54.77l-5.39,6.61V1H45.46V21.89h3.92V15.14L54,20.56a3.52,3.52,0,0,0,2.91,1.33h2.84l-5.28-6.1A3.63,3.63,0,0,0,52.43,14.61Z"/><path class="cls-1" d="M93.21,6.93a5.4,5.4,0,0,0-4.72,2.55C87.75,7.81,86.25,6.93,84,6.93a3.89,3.89,0,0,0-3.73,2c-.08.17-.22.21-.27,0a2.25,2.25,0,0,0-2.2-1.71H76.17V21.89h3.91V14.41c0-2.55,1-4.14,2.88-4.14,1.56,0,2.39,1,2.39,2.68v8.94h3.92V14.38c0-2.53,1-4.11,2.85-4.11,1.57,0,2.45,1,2.45,2.68v8.94h3.91v-10A4.91,4.91,0,0,0,93.21,6.93Z"/><path class="cls-1" d="M42.66,3.26A2.26,2.26,0,0,0,40.4,1H38.75V19.19a2.64,2.64,0,0,0,2.8,2.93,4.43,4.43,0,0,0,1.83-.4,5.93,5.93,0,0,1-.72-3.23Z"/><path class="cls-1" d="M20,5.58a3.93,3.93,0,0,0-3.92-3.9H12.4A2.26,2.26,0,0,0,10.13,4V5.74H16V19.19a2.67,2.67,0,0,0,2.84,2.93,4.58,4.58,0,0,0,1.87-.4A5.92,5.92,0,0,1,20,18.49Z"/><path class="cls-1" d="M25.89,4.86V1.68H18.78a.1.1,0,0,0-.06.19,4.16,4.16,0,0,1,2,3,1,1,0,0,0,1,.87H25A.88.88,0,0,0,25.89,4.86Z"/><path class="cls-1" d="M107.1,12.89c-1.94-.51-2.64-.93-2.64-1.59,0-.87.71-1.37,2.21-1.37a8,8,0,0,1,4.45,1.34V8.09a9,9,0,0,0-4.58-1.16c-3.61,0-5.84,1.9-5.84,4.5s2.23,3.73,4.61,4.39c2,.58,3,.9,3,1.78s-.77,1.5-2.43,1.5a7.56,7.56,0,0,1-5-1.9v3.45A9.07,9.07,0,0,0,106,22.12c3.8,0,6-1.81,6-4.6C112,14.51,109.46,13.5,107.1,12.89Z"/><path class="cls-1" d="M29.83,6.93c-4,0-7.3,3-7.3,7.66,0,4.43,3,7.53,8,7.53a9.7,9.7,0,0,0,5.11-1.42V17.36a8.28,8.28,0,0,1-4.69,1.58c-2.43,0-4.1-1-4.61-3.29H36.5a11,11,0,0,0,.11-1.38C36.61,9.46,33.5,6.93,29.83,6.93Zm-3.41,6a3.49,3.49,0,0,1,3.39-3.09c1.62,0,2.85,1.07,3,3.09Z"/><path class="cls-1" d="M120.55,6.93c-4,0-7.31,3-7.31,7.66,0,4.43,3,7.53,8,7.53a9.7,9.7,0,0,0,5.11-1.42V17.36a8.25,8.25,0,0,1-4.68,1.58c-2.44,0-4.11-1-4.62-3.29h10.22a13.19,13.19,0,0,0,.1-1.38C127.32,9.46,124.21,6.93,120.55,6.93Zm-3.42,6a3.5,3.5,0,0,1,3.39-3.09,3,3,0,0,1,3,3.09Z"/><path class="cls-1" d="M133.38,18.49V3.26A2.27,2.27,0,0,0,131.11,1h-1.65V19.19a2.64,2.64,0,0,0,2.8,2.93,4.4,4.4,0,0,0,1.83-.4A5.92,5.92,0,0,1,133.38,18.49Z"/><path class="cls-1" d="M129.11,27.43a2.29,2.29,0,1,0,2.37,2.29A2.33,2.33,0,0,0,129.11,27.43Zm-.12.73a1.46,1.46,0,1,1-1.53,1.46A1.5,1.5,0,0,1,129,28.16Zm1.71-3.24a.3.3,0,0,0-.2.08.5.5,0,0,0-.2.23l-.62,1.34a.92.92,0,0,1-.2.31c0,.05-.1.1-.18.08s-.09-.06-.12-.13a2.46,2.46,0,0,1,0-.37,3.68,3.68,0,0,0,0-.58c0-.08-.1-.28-.22-.29s-.32.28-.39.43a2.89,2.89,0,0,0-.25,1.38c0,.07,0,.19,0,.19a3,3,0,0,1,.4-.11l.23,0h.49l.23,0a2.54,2.54,0,0,1,.45.13,2.36,2.36,0,0,1,.75.49,2.37,2.37,0,0,1,.29.34,1.83,1.83,0,0,1,.21.39,2,2,0,0,1,.14.43,1.7,1.7,0,0,1,0,.22,1.93,1.93,0,0,1,0,.24,1.8,1.8,0,0,1,0,.46,2.16,2.16,0,0,1-.14.43,1,1,0,0,1-.07.15h0a3.05,3.05,0,0,0,.8.06,2.9,2.9,0,0,0,1.24-.25c.13-.07.29-.17.3-.31s-.13-.23-.24-.3a1,1,0,0,0-.41-.09c-.19,0-.36,0-.57,0s-.41-.05-.45-.23.17-.3.29-.42a9.68,9.68,0,0,1,.82-.61c.31-.25.6-.47.88-.74a1.6,1.6,0,0,0,.25-.27.55.55,0,0,0,.09-.28.15.15,0,0,0-.09-.13.38.38,0,0,0-.26-.05.63.63,0,0,0-.27.06,7.19,7.19,0,0,0-.75.34,2.77,2.77,0,0,1-.54.28c-.11,0-.28.11-.36,0s0-.23.09-.34a3.9,3.9,0,0,1,.37-.62c.15-.23.31-.45.45-.69a1.49,1.49,0,0,0,.17-.36.57.57,0,0,0,0-.29.19.19,0,0,0-.13-.1.44.44,0,0,0-.29.06,1.57,1.57,0,0,0-.42.29c-.34.36-.62.68-.95,1-.11.12-.26.32-.4.26s-.09-.22-.07-.32c0-.33.11-.67.14-1a1.91,1.91,0,0,0,0-.47.38.38,0,0,0-.06-.23.27.27,0,0,0-.16-.08ZM129,28.16a1.55,1.55,0,0,0-.31,0l-.29.08h0a4.23,4.23,0,0,0,.69,1.27,3.89,3.89,0,0,0,1.15.9h0l0,0,.14-.25a1.31,1.31,0,0,0,.09-.28,1.42,1.42,0,0,0,0-.58,1.31,1.31,0,0,0-.09-.28l-.14-.25-.19-.21a1.24,1.24,0,0,0-.22-.18,1.26,1.26,0,0,0-.26-.13,1.61,1.61,0,0,0-.29-.09A1.55,1.55,0,0,0,129,28.16Zm1.25,2.3,0,0,.14-.25a1.31,1.31,0,0,0,.09-.28,1.42,1.42,0,0,0,0-.58,1.31,1.31,0,0,0-.09-.28l-.14-.25-.19-.21a1.24,1.24,0,0,0-.22-.18,1.58,1.58,0,0,0-.26-.13,1.61,1.61,0,0,0-.29-.09,1.62,1.62,0,0,0-.62,0,1.4,1.4,0,0,0-.29.09h0a2.69,2.69,0,0,1-.15-.69,1.68,1.68,0,0,1,.4-.11l.23,0h.49l.23,0a2.54,2.54,0,0,1,.45.13,2.36,2.36,0,0,1,.75.49,2.37,2.37,0,0,1,.29.34,2.42,2.42,0,0,1,.21.39,2,2,0,0,1,.14.43,1.7,1.7,0,0,1,0,.22,1.93,1.93,0,0,1,0,.24,1.8,1.8,0,0,1,0,.46,2.16,2.16,0,0,1-.14.43,1,1,0,0,1-.07.15A4.38,4.38,0,0,1,130.24,30.46Zm-23.79-1.82a.16.16,0,0,0-.16.16v1.88a.16.16,0,1,0,.32,0V28.8A.16.16,0,0,0,106.45,28.64Zm.64,0a.17.17,0,0,0-.17.16v1.88a.18.18,0,0,0,.17.17.17.17,0,0,0,.16-.17v-.24l.25-.24.51.6a.17.17,0,0,0,.22,0,.2.2,0,0,0,0-.23l-.49-.61.47-.45a.16.16,0,0,0-.24-.22l-.73.69V28.8a.16.16,0,0,0-.16-.16Zm-3.84.12a.15.15,0,0,0,0,.3h.57v1.63a.16.16,0,0,0,.16.16.17.17,0,0,0,.17-.16V29.06h.59a.15.15,0,0,0,0-.3Zm5.9.48a.82.82,0,1,0,.84.81A.82.82,0,0,0,109.15,29.24Zm2.81,0-.15,0a.78.78,0,0,0-.24.09l-.16.11a.67.67,0,0,0-.31-.2l-.13,0a.72.72,0,0,0-.25,0,1.29,1.29,0,0,0-.23.15h0a.16.16,0,0,0-.17-.15.15.15,0,0,0-.16.17v1.25a.17.17,0,0,0,.16.17.18.18,0,0,0,.17-.17v-.8a.33.33,0,0,1,.17-.28.48.48,0,0,1,.17-.05H111a.33.33,0,0,1,.2.32v.8a.16.16,0,1,0,.32,0v-.84a.36.36,0,0,1,.15-.23.32.32,0,0,1,.21-.06.24.24,0,0,1,.18,0,.32.32,0,0,1,.11.12.2.2,0,0,1,0,.13h0v.83a.17.17,0,0,0,.16.17.18.18,0,0,0,.17-.17v-.89a.45.45,0,0,0-.11-.31.61.61,0,0,0-.17-.15.51.51,0,0,0-.17-.07Zm-6.61,0a.77.77,0,0,0-.79.81.79.79,0,0,0,.8.81.72.72,0,0,0,.61-.2.2.2,0,0,0,0-.25.17.17,0,0,0-.2,0,.68.68,0,0,1-.43.17.44.44,0,0,1-.44-.38h.93a.24.24,0,0,0,.18-.06.21.21,0,0,0,.07-.13.73.73,0,0,0-.75-.76Zm3.79.27a.54.54,0,1,1-.51.54A.53.53,0,0,1,109.14,29.52Zm-3.81,0a.37.37,0,0,1,.41.37h-.82a.39.39,0,0,1,.41-.37Zm11.92-.9a.16.16,0,0,0-.15.16v.69a.58.58,0,0,0-.53-.25.81.81,0,0,0,0,1.62.65.65,0,0,0,.55-.28v.11a.15.15,0,0,0,.15.15.16.16,0,0,0,.16-.15V28.79a.16.16,0,0,0-.16-.16Zm-3.6.08a.16.16,0,0,0-.15.17v1.78a.16.16,0,1,0,.31,0V28.88A.16.16,0,0,0,113.65,28.71Zm9.66.51a.7.7,0,0,0-.32.06.41.41,0,0,0-.19.18.37.37,0,0,0-.07.23.39.39,0,0,0,.07.23.55.55,0,0,0,.19.15c.1.05.22.07.32.11a1.06,1.06,0,0,1,.25.09.27.27,0,0,1,.07.14.23.23,0,0,1-.08.14.31.31,0,0,1-.19,0,.71.71,0,0,1-.21,0L123,30.5l-.11-.06s-.07,0-.11,0a.18.18,0,0,0-.1.09.1.1,0,0,0,0,.09.29.29,0,0,0,.09.1.62.62,0,0,0,.22.1.76.76,0,0,0,.3.05,1.19,1.19,0,0,0,.33,0,.49.49,0,0,0,.22-.18.45.45,0,0,0,.07-.25.59.59,0,0,0,0-.2.57.57,0,0,0-.16-.15,1.51,1.51,0,0,0-.26-.12,1.45,1.45,0,0,1-.22-.09.59.59,0,0,1-.14-.06.22.22,0,0,1-.05-.11.15.15,0,0,1,.07-.12.33.33,0,0,1,.17,0,.3.3,0,0,1,.16,0,.52.52,0,0,1,.13.06c.06,0,.1.05.16,0s.11,0,.13,0a.14.14,0,0,0,0-.14.63.63,0,0,0-.12-.11.68.68,0,0,0-.2-.07A.57.57,0,0,0,123.31,29.22Zm-4.88,0a.82.82,0,1,0,.84.81A.83.83,0,0,0,118.43,29.22Zm3.46,0a.81.81,0,0,0,0,1.62.72.72,0,0,0,.61-.2.2.2,0,0,0,0-.25.18.18,0,0,0-.2,0,.73.73,0,0,1-.43.16.41.41,0,0,1-.43-.38h.92a.29.29,0,0,0,.19-.05.3.3,0,0,0,.06-.14A.73.73,0,0,0,121.89,29.22Zm3.5,0a.69.69,0,0,0-.32,0,.32.32,0,0,0-.16.09.2.2,0,0,0-.06.13.12.12,0,0,0,.09.09c.09,0,.16,0,.29-.07a.59.59,0,0,1,.47.06.51.51,0,0,1,.12.3l-.1,0h-.24a1.56,1.56,0,0,0-.31,0,.57.57,0,0,0-.28.11.46.46,0,0,0-.15.23.56.56,0,0,0,0,.34.53.53,0,0,0,.24.23.66.66,0,0,0,.34.08.8.8,0,0,0,.4-.11.67.67,0,0,0,.1-.12v.07a.16.16,0,1,0,.32,0v-.41a4.36,4.36,0,0,0,0-.61.5.5,0,0,0-.16-.27.52.52,0,0,0-.19-.11A1.12,1.12,0,0,0,125.39,29.23Zm-10.49,0a.6.6,0,0,0-.2,0,1.13,1.13,0,0,0-.25.14h0a.13.13,0,0,0-.15-.15c-.12,0-.15.09-.15.18v1.25a.17.17,0,0,0,.16.17.18.18,0,0,0,.17-.17v-.8a.34.34,0,0,1,.17-.28.48.48,0,0,1,.17-.05.65.65,0,0,1,.18,0,.33.33,0,0,1,.23.31v.8a.16.16,0,1,0,.32,0v-.83a.63.63,0,0,0-.12-.4.61.61,0,0,0-.32-.19h-.21Zm5.35,0a.6.6,0,0,0-.2,0,1.13,1.13,0,0,0-.25.14h0c0-.06,0-.15-.16-.15s-.14.09-.14.18v1.25a.17.17,0,0,0,.16.17.18.18,0,0,0,.17-.17v-.8a.34.34,0,0,1,.17-.28.48.48,0,0,1,.17-.05.65.65,0,0,1,.18,0,.33.33,0,0,1,.23.31v.8a.16.16,0,1,0,.32,0v-.83a.63.63,0,0,0-.12-.4.65.65,0,0,0-.32-.19h-.21Zm4.09,0a.15.15,0,0,0-.15.16v1.28a.15.15,0,0,0,.15.15.16.16,0,0,0,.16-.15V29.4A.16.16,0,0,0,124.34,29.24Zm-2.47.26a.38.38,0,0,1,.4.37h-.82A.4.4,0,0,1,121.87,29.5Zm-3.44,0a.54.54,0,1,1-.52.53A.52.52,0,0,1,118.43,29.51Zm-1.85,0a.53.53,0,0,1,.52.54.51.51,0,0,1-1,0A.51.51,0,0,1,116.58,29.51Zm8.82.55.27,0,.16,0a.74.74,0,0,1,0,.2.44.44,0,0,1-.17.23.58.58,0,0,1-.29.06.37.37,0,0,1-.23-.07.23.23,0,0,1-.1-.17.22.22,0,0,1,.08-.22A.49.49,0,0,1,125.4,30.06Zm-24.13-.16a.48.48,0,0,1,0,1,.39.39,0,0,1-.35-.18v.17h-.15V29.6h.15v.49A.41.41,0,0,1,101.27,29.9Zm0,.14a.35.35,0,0,0,0,.69.32.32,0,0,0,.31-.35A.31.31,0,0,0,101.24,30Zm1.31-.12h.16l-.55,1.36H102l.18-.44-.38-.92H102l.29.75Z"/></svg>