<svg id="Layer_1" data-name="Layer 1" xmlns="http://www.w3.org/2000/svg" viewBox="0 0 135 33"><defs><style>.cls-1{fill:#e9e7dd;}.cls-2{fill:#ea524e;}.cls-3{fill:#fae001;}.cls-4{fill:#7eaadb;}.cls-5{fill:#635687;}.cls-6{fill:#5e90cc;}.cls-7{fill:#f7d300;}.cls-8{fill:#e8413c;}.cls-9{fill:#dfdace;}.cls-10{fill:#fff;}</style></defs><title>logo</title><path class="cls-1" d="M45.47,23.86A6.81,6.81,0,0,1,41,17.55a6.51,6.51,0,0,1,.48-2.47l-6-2.4a12.76,12.76,0,0,0-1.2,5.42,13,13,0,0,0,9,12.2Z"/><path class="cls-2" d="M62.8,17.59a15,15,0,0,0-1.33-6.17l-7.63,3.39a6.71,6.71,0,0,1-8.36,9l-2.75,7.73a14.75,14.75,0,0,0,5.16.92A14.9,14.9,0,0,0,62.8,17.59Z"/><path class="cls-3" d="M53.46,2.25l-3.41,9a6.71,6.71,0,0,1,3.78,3.56h0l8.64-3.91A15.46,15.46,0,0,0,53.46,2.25Z"/><path class="cls-4" d="M40.78,2.2,45,11.4a6.8,6.8,0,0,1,2.68-.56,6.52,6.52,0,0,1,2.34.43h0l3.6-9.63a15.45,15.45,0,0,0-12.87.56Z"/><path class="cls-5" d="M31,11l10.48,4.1h0a6.67,6.67,0,0,1,3.59-3.69L40.27,1.07A15.44,15.44,0,0,0,31,11Z"/><path class="cls-6" d="M42.79,1.34a16.2,16.2,0,0,0-2,.86L45,11.4c.21-.09.44-.17.67-.25Z"/><path class="cls-7" d="M55.72,3.29a15.41,15.41,0,0,0-2.26-1l-3.41,9a6.19,6.19,0,0,1,1.1.53Z"/><path class="cls-8" d="M62.33,13.86a15.32,15.32,0,0,0-.86-2.44l-7.63,3.39c.1.22.18.45.26.68Z"/><path class="cls-9" d="M41,29.33a12.23,12.23,0,0,0,2.22,1l2.28-6.44a5.93,5.93,0,0,1-1.08-.51Z"/><path class="cls-10" d="M70.34,6.91c0-2.74,1.42-3.61,3.6-3.61h8c5.18,0,9.35,2.56,9.35,8.56,0,4.92-3.42,8.56-9.39,8.56H76.49v6.27a3.08,3.08,0,1,1-6.15,0Zm6.15,8.78h4.58c2.47,0,4.31-1.5,4.31-3.83,0-2.7-1.91-3.83-4.95-3.83H76.49Z"/><path class="cls-10" d="M17,27.5a2,2,0,0,1-4,0v-.9a6.29,6.29,0,0,1-5.47,3.08C3.58,29.68,1.3,27,1.3,23v-9.3a2,2,0,1,1,4,0v8.11C5.31,24.48,6.66,26,9.05,26S13,24.42,13,21.7v-8a2,2,0,0,1,2-2,2,2,0,0,1,2,2Z"/><path class="cls-10" d="M34.13,3.44a4.16,4.16,0,0,0-1.49-.25H14.85c-1.77,0-3.19.9-3.19,2.59s1.42,2.59,3.19,2.59h5.82V26.69a2.9,2.9,0,0,0,3.08,3.08,2.89,2.89,0,0,0,3.07-3.08V8.37h3.77A16.82,16.82,0,0,1,34.13,3.44Z"/><path class="cls-10" d="M64.79,3.17a2.89,2.89,0,0,0-3.08,3.07v.61a17.23,17.23,0,0,1,2,3.61l.48,1.18-1,.46a16.21,16.21,0,0,1-1.48,14.09v.5a3.08,3.08,0,1,0,6.15,0V6.24A2.89,2.89,0,0,0,64.79,3.17Z"/></svg>