<?xml version="1.0" encoding="UTF-8"?>
<svg width="16px" height="16px" viewBox="0 0 16 16" version="1.1" xmlns="http://www.w3.org/2000/svg" xmlns:xlink="http://www.w3.org/1999/xlink">
    <title>search-dark</title>
    <g id="Page-1" stroke="none" stroke-width="1" fill="none" fill-rule="evenodd">
        <g id="search-dark" fill="#C3C3C3" fill-rule="nonzero">
            <path d="M11.742,10.344 C13.7503419,7.60346614 13.3092152,3.778554 10.7297644,1.56712981 C8.1503137,-0.644294379 4.30290309,-0.496046815 1.90126795,1.90730746 C-0.500367185,4.31066174 -0.645861645,8.15817744 1.56740774,10.7360451 C3.78067712,13.3139128 7.60590394,13.7523024 10.345,11.742 L10.344,11.742 C10.374,11.782 10.406,11.82 10.442,11.857 L14.292,15.707 C14.6824653,16.0977414 15.3157585,16.0979653 15.7065,15.7075 C16.0972414,15.3170347 16.0974653,14.6837415 15.707,14.293 L11.857,10.443 C11.8212476,10.4068097 11.7828042,10.3733807 11.742,10.343 L11.742,10.344 Z M12,6.50000008 C12,8.46496076 10.951706,10.2806594 9.25000002,11.2631398 C7.54829409,12.2456202 5.45170591,12.2456202 3.74999998,11.2631398 C2.04829404,10.2806594 1,8.46496076 1,6.50000008 C1,3.46243391 3.46243391,1.00000008 6.5,1.00000008 C9.53756609,1.00000008 12,3.46243391 12,6.50000008 Z" id="Shape"></path>
        </g>
    </g>
</svg>